<?xml version="1.0" encoding="UTF-8"?>
<svg width="180px" height="180px" viewBox="0 0 180 180" version="1.1" xmlns="http://www.w3.org/2000/svg" xmlns:xlink="http://www.w3.org/1999/xlink">
    <!-- Generator: Sketch 55.2 (78181) - https://sketchapp.com -->
    <title>App Icon</title>
    <desc>Created with Sketch.</desc>
    <defs>
        <linearGradient x1="50%" y1="0%" x2="50%" y2="100%" id="linearGradient-1">
            <stop stop-color="#009DC2" offset="0%"></stop>
            <stop stop-color="#00648F" offset="100%"></stop>
        </linearGradient>
    </defs>
    <g id="App-Icon" stroke="none" stroke-width="1" fill="none" fill-rule="evenodd">
        <rect fill="#FFFFFF" x="0" y="0" width="180" height="180"></rect>
        <rect id="Rectangle" fill="url(#linearGradient-1)" opacity="0.8" x="0" y="0" width="180" height="180"></rect>
        <g id="Group-2" transform="translate(37.000000, 32.000000)">
            <g id="Group" transform="translate(0.000000, 0.000000)">
                <rect id="Rectangle" fill="#FFFFFF" x="69.0606061" y="69.4791667" width="4.01515152" height="1.47743056"></rect>
                <path d="M38.1467907,49.4991588 C19.6754551,49.4991588 4.70399695,64.1620719 4.70399695,82.2495794 C4.70399695,89.8119313 7.32277637,96.7755087 11.7181727,102.318409 L0,115 L38.1467907,115 C56.6166844,115 71.5895845,100.337087 71.5895845,82.2495794 C71.5895845,64.1620719 56.6166844,49.4991588 38.1467907,49.4991588 Z M97.8177564,35.4802107 C97.8177564,42.5793597 95.6546676,49.4920978 91.5895029,55.366866 L106,70.9604215 L71.0300656,70.9604215 C70.3479716,69.0567706 69.4985988,67.2322032 68.5006938,65.5008412 L93.468506,65.5008412 L84.3893016,55.6747265 C89.4336245,49.3141601 92.2427557,43.6865276 92.2427557,35.4802107 C92.2427557,18.9023492 78.5157946,5.45958027 61.5874622,5.45958027 C44.6591299,5.45958027 30.9321688,18.9023492 30.9321688,35.4802107 C30.9321688,40.1009419 32.0007346,44.4759496 33.9042527,48.3849299 C31.986314,48.613707 30.1130792,48.995002 28.304737,49.5161053 C26.4084292,45.2102956 25.3571681,40.4652905 25.3571681,35.4802107 C25.3571681,15.8858816 41.5788915,0 61.5874622,0 C81.597475,0 97.8177564,15.8844694 97.8177564,35.4802107 Z" id="Shape" fill="#000000"></path>
                <ellipse id="Oval" fill="#000000" cx="60.2272727" cy="37.9340278" rx="33.7272727" ry="34.3402778"></ellipse>
                <ellipse id="Oval" fill="#000000" cx="87.1287879" cy="63.4895833" rx="8.43181818" ry="5.98958333"></ellipse>
                <path d="M42.730399,31.3055556 C42.5794714,31.3055556 42.5291629,31.2319395 42.5794721,31.0847051 C42.6297813,30.9374707 42.7136287,30.7797219 42.8310168,30.611454 C42.948405,30.4431862 43.0699837,30.2854374 43.1957567,30.138203 C43.3215297,29.9909686 43.4011847,29.9173525 43.4347241,29.9173525 C43.6527307,29.6859842 43.9378118,29.4335862 44.2899762,29.1601509 C44.6421405,28.8867156 44.9607606,28.75 45.2458461,28.75 L81.0155042,28.75 C81.1161226,28.75 81.1328921,28.8130995 81.0658132,28.9393004 C80.9987342,29.0655013 80.9023097,29.2074752 80.7765367,29.3652263 C80.6507638,29.5229775 80.529185,29.6807262 80.4117969,29.8384774 C80.2944088,29.9962285 80.2357156,30.1066526 80.2357156,30.1697531 C80.0680183,30.4011214 79.8080914,30.6482611 79.455927,30.9111797 C79.1037626,31.1740983 78.7348341,31.3055556 78.3491303,31.3055556 L42.730399,31.3055556 Z M70.4348794,30.6223872 C70.4348794,30.3862291 70.585988,30.1585086 70.8882097,29.9392189 C71.1904314,29.7199292 71.5315051,29.517511 71.911441,29.3319582 C72.3431863,29.1295369 72.8353686,28.9355528 73.3880026,28.75 C73.439812,29.6777641 73.2671165,30.5296074 72.8699108,31.3055556 C72.4727051,32.0815037 71.9459837,32.7857504 71.2897308,33.4183168 C70.6334779,34.0508833 69.8908871,34.6117504 69.0619361,35.1009351 C68.2329851,35.5901198 67.4213161,36.0202585 66.6269047,36.3913641 C64.8308442,37.116707 63.017541,37.6564889 61.1869409,38.0107261 C59.3563407,38.3649633 57.4912289,38.6854588 55.5915495,38.9722222 C55.4361212,38.9722222 55.3799951,38.9131836 55.4231697,38.7951045 C55.4663442,38.6770254 55.5483746,38.5505141 55.6692633,38.4155666 C55.8074218,38.2468822 55.9801173,38.0528981 56.1873551,37.8336084 C56.4464022,37.6480555 56.7572542,37.4498544 57.1199203,37.2389989 C57.4825864,37.0281434 57.8366122,36.9227173 58.1820085,36.9227173 C58.8382613,36.8383751 59.6024391,36.7456001 60.4745646,36.6443894 C61.3466902,36.5431788 62.2490244,36.4082333 63.1815943,36.239549 C64.1141642,36.0708646 65.0294505,35.8515782 65.9274808,35.5816832 C66.825511,35.3117882 67.6199105,34.9575563 68.310703,34.5189769 C69.0014955,34.0803975 69.5454865,33.5448326 69.9426922,32.9122662 C70.3398979,32.2796998 70.5039586,31.5164144 70.4348794,30.6223872 Z M59.1069888,38.1160603 C58.9555145,38.1160603 58.9008162,38.0620312 58.9428924,37.9539714 C58.9849686,37.8459115 59.0649122,37.7253851 59.1827256,37.5923884 C59.3173695,37.4261426 59.4856718,37.2432749 59.6876376,37.0437798 C60.0074168,36.8442848 60.3313988,36.6364806 60.6595932,36.420361 C60.9877877,36.2042413 61.3033545,36.0961831 61.6063033,36.0961831 C62.5824714,36.1460569 63.5417946,36.2956759 64.4843017,36.5450447 C65.4268089,36.7944135 66.2935658,37.1559928 67.0845986,37.6297935 C67.8756313,38.1035943 68.5698784,38.6896021 69.1673606,39.3878347 C69.7648428,40.0860674 70.2066364,40.9006599 70.4927546,41.8316367 C70.7957034,42.6961152 70.9303452,43.5522685 70.8966842,44.4001224 C70.8630233,45.2479763 70.694721,46.0667249 70.3917722,46.8563927 C70.0888235,47.6460606 69.6596526,48.3900031 69.1042466,49.0882323 C68.5488406,49.7864649 67.9092918,50.4098775 67.185581,50.9584889 C66.3272263,51.6234723 65.3552804,52.201168 64.2697141,52.6915933 C63.1841479,53.1820186 62.0481072,53.5643783 60.8615581,53.838684 C59.6750089,54.1129897 58.4674397,54.2667648 57.2388144,54.300014 C56.010189,54.3332631 54.8194501,54.2168928 53.6665619,53.9508994 C52.5136737,53.684906 51.4281238,53.2651415 50.4098794,52.6915933 C49.3916351,52.1180451 48.4954253,51.3574817 47.721223,50.4098803 C46.8123768,49.2627838 46.1602053,47.9951781 45.764689,46.6070252 C45.3691726,45.2188722 45.1587947,43.7974914 45.1335489,42.3428402 C45.1083032,40.8881889 45.2303224,39.4294033 45.4996102,37.9664397 C45.7688979,36.5034762 46.1223328,35.1070319 46.5599254,33.777065 C47.0311789,32.3141014 47.6160295,30.8677841 48.3144946,29.4380697 C49.0129597,28.0083553 49.8250184,26.6451597 50.7506951,25.3484419 C51.6763717,24.0517242 52.7198461,22.8464598 53.8811495,21.7326125 C55.0424529,20.6187653 56.3215506,19.6296172 57.7184808,18.7651387 C58.3075477,18.3993978 58.905021,18.0461307 59.5109184,17.7053267 C60.1168159,17.3645226 60.743742,17.0652846 61.3917157,16.8076035 C62.0396893,16.5499224 62.7044835,16.3462743 63.3861181,16.196653 C64.0677527,16.0470317 64.7704149,15.9722222 65.4941257,15.9722222 C66.2178366,15.9722222 66.9499517,16.0553439 67.690493,16.2215898 C68.4310343,16.3878348 69.1336965,16.6372007 69.7985006,16.9696924 C70.4633048,17.3021841 71.0565704,17.7177925 71.5783155,18.2165301 C72.1000605,18.7152677 72.503986,19.3054317 72.7901043,19.9870397 C73.2108664,20.9346411 73.4128292,21.8739161 73.3959987,22.804893 C73.3791682,23.7358698 73.1940357,24.6252718 72.8405955,25.4731257 C72.4871553,26.3209796 71.994871,27.1189478 71.3637279,27.8670541 C70.7325847,28.6151605 70.0130923,29.2884462 69.205229,29.8869313 C68.3973658,30.4854164 67.5390239,30.9924586 66.6301778,31.4080733 C65.7213316,31.8236879 64.8124991,32.122926 63.9036529,32.3057965 C63.7185176,32.3556702 63.6175362,32.343202 63.6007057,32.2683913 C63.5838752,32.1935807 63.604913,32.1021468 63.6638197,31.994087 C63.7227264,31.8860272 63.7984624,31.7821251 63.8910301,31.6823776 C63.9835978,31.5826301 64.0551263,31.5327571 64.1056177,31.5327571 C64.290753,31.2667637 64.5684519,31.0090865 64.9387225,30.7597177 C65.3089932,30.5103489 65.6876734,30.3441055 66.0747746,30.2609826 C67.1350951,30.0781121 68.0060596,29.7040646 68.6876942,29.1388286 C69.3693288,28.5735927 69.8447829,27.7839367 70.1140706,26.7698369 C70.4001889,25.9552322 70.5684912,25.1156989 70.6189826,24.2512247 C70.6694741,23.3867463 70.5011718,22.5887781 70.1140706,21.8572963 C69.7269695,21.1756883 69.2431003,20.5730561 68.6624486,20.0493816 C68.0817969,19.5257071 67.4422481,19.0976305 66.743783,18.7651387 C66.0453179,18.432647 65.3047877,18.1999063 64.5221701,18.0669096 C63.7395526,17.9339129 62.9611544,17.9089764 62.1869521,17.9920993 C61.4127498,18.0918469 60.6974649,18.2622463 60.041076,18.5033028 C59.3846871,18.7443593 58.7661761,19.0477535 58.1855244,19.4134944 C57.6048727,19.7792352 57.0536826,20.1989997 56.5319376,20.6728005 C56.0101925,21.1466012 55.5052856,21.6577995 55.0172015,22.2064109 C53.9737115,23.4532486 53.0185958,24.7998261 52.1518259,26.2461651 C51.2850559,27.6925041 50.5403182,29.1928505 49.9175902,30.7472493 C49.2948623,32.3016481 48.8109931,33.8934283 48.4659682,35.5226378 C48.1209433,37.1518472 47.9484334,38.7644079 47.9484334,40.3603682 C47.9484334,41.0419762 47.9863014,41.7318862 48.0620386,42.4301188 C48.1377758,43.1283514 48.2682101,43.8182648 48.4533454,44.4998694 C48.6384807,45.1814775 48.8867267,45.8464509 49.1980906,46.4948098 C49.5094546,47.1431654 49.9091726,47.7665813 50.3972566,48.3650664 C51.5753906,49.744907 52.9975452,50.7548355 54.6637631,51.3948821 C56.3299811,52.0349286 58.0719101,52.3133863 59.8896024,52.2302633 C60.4113475,52.2302633 60.996198,52.213639 61.6441717,52.1803898 C62.2921453,52.1471407 62.923279,52.0598629 63.5375917,51.9185539 C64.1519044,51.7772449 64.7199247,51.5735968 65.2416697,51.3076034 C65.7634148,51.04161 66.1757554,50.6841868 66.4787042,50.235323 C67.1350931,49.4040937 67.5979244,48.4980673 67.8672122,47.5172167 C68.1364999,46.5363661 68.1785755,45.5389059 67.9934402,44.5248062 C67.6904915,43.527331 67.2486979,42.6337729 66.6680462,41.8441051 C66.0873944,41.0544372 65.4057701,40.3811516 64.6231525,39.824228 C63.840535,39.2673043 62.9779856,38.8433837 62.0354785,38.5524535 C61.0929713,38.2615232 60.1168179,38.1160603 59.1069888,38.1160603 Z" id="a" stroke="#33B1CF" stroke-width="0.6" fill="#33B1CF" fill-rule="nonzero"></path>
                <ellipse id="Oval" fill="#3399B9" cx="38.1439394" cy="83.0555556" rx="26.9015152" ry="25.5555556"></ellipse>
                <path d="M25.6969697,95.3124034 C26.3412228,95.3124034 26.8566233,95.1591249 27.2431771,94.8525634 C27.629729,94.5460018 27.9454118,94.1461449 28.1902292,93.6529806 C28.4350466,93.1598163 28.7249575,92.420081 29.0599708,91.4337525 L29.4465227,90.3141419 L37.4094909,67.8819444 L38.3372153,67.8819444 L46.9573217,90.6340307 C47.2407944,91.3537839 47.4856082,92.1335049 47.6917702,92.973217 C47.8979322,93.8129292 47.9881267,94.4993502 47.9623565,95.0325008 L50.5909091,94.8725564 L50.5909091,96.6319444 L41.7388716,96.6319444 L41.7388716,95.3124034 C43.2593165,95.2857459 44.0195276,94.6459748 44.0195276,93.393071 C44.0195276,92.886578 43.8906782,92.2601355 43.6329757,91.5137247 L42.2800442,87.7550321 L32.229696,87.9949486 C31.8431422,89.0879073 31.3921696,90.5140636 30.8767645,92.2734604 C30.619062,93.1531589 30.2969387,94.0728298 29.9103849,95.0325008 L32.9254894,94.8725564 L32.9254894,96.6319444 L25.6969697,96.6319444 L25.6969697,95.3124034 Z M41.7388716,86.2755467 L38.9943535,78.6382031 L37.2548701,73.7199138 L37.1775598,73.7199138 L35.554042,78.2383422 L33.466662,84.3162282 L32.8095238,86.2755467 L41.7388716,86.2755467 Z" id="A" fill="#000000" fill-rule="nonzero" opacity="0.8"></path>
            </g>
            <rect id="Rectangle" fill="#000000" x="69.5234375" y="70.3046875" width="1.58203125" height="1"></rect>
        </g>
    </g>
</svg>