<?xml version="1.0" encoding="UTF-8"?>
<svg width="27px" height="27px" viewBox="0 0 27 27" version="1.1" xmlns="http://www.w3.org/2000/svg" xmlns:xlink="http://www.w3.org/1999/xlink">
    <!-- Generator: Sketch 55.2 (78181) - https://sketchapp.com -->
    <title>Shape 3</title>
    <desc>Created with Sketch.</desc>
    <g id="V1.0" stroke="none" stroke-width="1" fill="none" fill-rule="evenodd" opacity="0.5">
        <g id="Main-Menu" transform="translate(-317.000000, -60.000000)" fill="#000000" fill-rule="nonzero">
            <g id="Shape-3" transform="translate(317.000000, 60.000000)">
                <path d="M9.51203452,4.66210995 C9.02903452,4.12310995 8.65803452,3.52810995 8.44103452,2.92610995 C8.11203452,2.03710995 8.08403452,1.13410995 8.41303452,0.371109949 C8.54603452,0.0631099487 8.91003452,-0.0838900513 9.21803452,0.0491099487 C9.53303452,0.182109949 9.67303452,0.546109949 9.54003452,0.861109949 C9.34403452,1.31610995 9.37903452,1.90410995 9.59603452,2.49910995 C9.80603452,3.07310995 10.1910345,3.64010995 10.7090345,4.12310995 C11.4930345,3.85710995 12.3820345,3.71010995 13.3200345,3.71010995 C14.2580345,3.71010995 15.1470345,3.85710995 15.9380345,4.12310995 C16.4560345,3.64010995 16.8340345,3.07310995 17.0440345,2.49910995 C17.2680345,1.90410995 17.3030345,1.31610995 17.1000345,0.861109949 C16.9670345,0.546109949 17.1140345,0.182109949 17.4220345,0.0491099487 C17.7370345,-0.0838900513 18.1010345,0.0631099487 18.2340345,0.371109949 C18.5630345,1.13410995 18.5350345,2.03710995 18.2060345,2.92610995 C17.9820345,3.52810995 17.6180345,4.12310995 17.1350345,4.66210995 C17.2190345,4.70410995 17.2960345,4.75310995 17.3730345,4.80910995 C18.5000345,5.53710995 19.2000345,6.56610995 19.2000345,7.72810995 C19.2000345,8.89010995 18.5000345,9.91910995 17.3730345,10.6471099 C16.3300345,11.3261099 14.8950345,11.7461099 13.3200345,11.7461099 C11.7520345,11.7461099 10.3170345,11.3261099 9.26703452,10.6471099 C8.14003452,9.91910995 7.44703452,8.89010995 7.44703452,7.72810995 C7.44703452,6.56610995 8.14003452,5.53710995 9.26703452,4.80910995 C9.34403452,4.75310995 9.42803452,4.70410995 9.51203452,4.66210995 Z M19.3820345,21.0701099 L22.4690345,23.2471099 C22.6020345,23.3381099 22.6860345,23.4711099 22.7140345,23.6111099 L23.2110345,25.7391099 C23.2880345,26.0681099 23.0850345,26.4041099 22.7490345,26.4811099 C22.4200345,26.5581099 22.0840345,26.3481099 22.0070345,26.0191099 L21.5660345,24.1221099 L18.7030345,22.1061099 C18.5840345,22.2601099 18.4650345,22.4071099 18.3460345,22.5471099 C17.2050345,23.8491099 15.7000345,24.7521099 13.9430345,24.9271099 L13.9430345,12.9641099 C15.3780345,12.8731099 16.8410345,12.4671099 18.0450345,11.6901099 C18.2900345,11.5291099 18.5280345,11.3541099 18.7450345,11.1651099 C19.1580345,11.6271099 19.5010345,12.1311099 19.7740345,12.6631099 L22.9380345,11.0601099 L23.5890345,8.15510995 C23.6660345,7.82610995 23.9950345,7.61610995 24.3240345,7.68610995 C24.6600345,7.76310995 24.8700345,8.09210995 24.7930345,8.42810995 L24.0790345,11.6131099 C24.0370345,11.8021099 23.9110345,11.9491099 23.7500345,12.0261099 L20.2360345,13.8041099 C20.4950345,14.6231099 20.6210345,15.4841099 20.6210345,16.3521099 L20.6210345,16.4991099 L24.3730345,16.7721099 C24.5690345,16.7861099 24.7300345,16.8841099 24.8350345,17.0381099 L26.5150345,19.2151099 C26.7250345,19.4811099 26.6760345,19.8731099 26.4030345,20.0761099 C26.1370345,20.2861099 25.7450345,20.2371099 25.5420345,19.9641099 L24.0090345,17.9831099 L20.5160345,17.7311099 C20.4180345,18.3961099 20.2500345,19.0471099 20.0190345,19.6701099 C19.8440345,20.1601099 19.6270345,20.6291099 19.3820345,21.0701099 L19.3820345,21.0701099 Z M7.94403452,22.1061099 L5.07403452,24.1221099 L4.63303452,26.0191099 C4.55603452,26.3481099 4.22703452,26.5581099 3.89103452,26.4811099 C3.56203452,26.4041099 3.35203452,26.0681099 3.42903452,25.7391099 L3.92603452,23.6111099 C3.96103452,23.4711099 4.04503452,23.3381099 4.17103452,23.2471099 L7.26503452,21.0701099 C7.01303452,20.6291099 6.79603452,20.1601099 6.62103452,19.6701099 C6.39003452,19.0471099 6.22203452,18.3961099 6.12403452,17.7311099 L2.63803452,17.9831099 L1.10503452,19.9641099 C0.895034523,20.2371099 0.510034523,20.2861099 0.237034523,20.0761099 C-0.0289654767,19.8731099 -0.0779654767,19.4811099 0.125034523,19.2151099 L1.80503452,17.0381099 C1.91003452,16.8841099 2.07803452,16.7861099 2.27403452,16.7721099 L6.02603452,16.4991099 L6.02603452,16.3521099 C6.02603452,15.4841099 6.14503452,14.6231099 6.40403452,13.8041099 L2.89003452,12.0331099 C2.72903452,11.9491099 2.61003452,11.8021099 2.56803452,11.6131099 L1.85403452,8.42810995 C1.77703452,8.09210995 1.98703452,7.76310995 2.31603452,7.68610995 C2.65203452,7.61610995 2.98103452,7.82610995 3.05103452,8.15510995 L3.70203452,11.0601099 L6.87303452,12.6631099 C7.14603452,12.1311099 7.48203452,11.6271099 7.89503452,11.1651099 C8.11203452,11.3541099 8.35003452,11.5291099 8.59503452,11.6901099 C9.80603452,12.4671099 11.2620345,12.8731099 12.7040345,12.9641099 L12.7040345,24.9271099 C10.9470345,24.7521099 9.43503452,23.8491099 8.30103452,22.5471099 C8.17503452,22.4071099 8.05603452,22.2601099 7.94403452,22.1061099 L7.94403452,22.1061099 Z" id="Shape"></path>
            </g>
        </g>
    </g>
</svg>