<?xml version="1.0" encoding="UTF-8"?>
<svg width="60px" height="60px" viewBox="0 0 60 60" version="1.1" xmlns="http://www.w3.org/2000/svg" xmlns:xlink="http://www.w3.org/1999/xlink">
    <!-- Generator: Sketch 55.2 (78181) - https://sketchapp.com -->
    <title>Group 3</title>
    <desc>Created with Sketch.</desc>
    <defs>
        <circle id="path-1" cx="25" cy="25" r="25"></circle>
        <filter x="-15.0%" y="-11.0%" width="130.0%" height="130.0%" filterUnits="objectBoundingBox" id="filter-2">
            <feMorphology radius="0.5" operator="dilate" in="SourceAlpha" result="shadowSpreadOuter1"></feMorphology>
            <feOffset dx="0" dy="2" in="shadowSpreadOuter1" result="shadowOffsetOuter1"></feOffset>
            <feGaussianBlur stdDeviation="2" in="shadowOffsetOuter1" result="shadowBlurOuter1"></feGaussianBlur>
            <feComposite in="shadowBlurOuter1" in2="SourceAlpha" operator="out" result="shadowBlurOuter1"></feComposite>
            <feColorMatrix values="0 0 0 0 0   0 0 0 0 0   0 0 0 0 0  0 0 0 0.1 0" type="matrix" in="shadowBlurOuter1"></feColorMatrix>
        </filter>
    </defs>
    <g id="V1.0" stroke="none" stroke-width="1" fill="none" fill-rule="evenodd">
        <g id="Module-Card-(flip)" transform="translate(-48.000000, -696.000000)">
            <g id="Group-3" transform="translate(53.000000, 699.000000)">
                <g id="Oval">
                    <use fill="black" fill-opacity="1" filter="url(#filter-2)" xlink:href="#path-1"></use>
                    <use stroke-opacity="0.1" stroke="#979797" stroke-width="1" fill="#FFFFFF" fill-rule="evenodd" xlink:href="#path-1"></use>
                </g>
                <path d="M27.4487381,15 C27.052275,14.9987547 26.6718157,15.1647765 26.3921728,15.4610626 L18.4369721,23.8539063 C17.8543426,24.4694746 17.8543426,25.4660932 18.4369721,26.0816616 L26.3921728,34.4745052 C26.7613726,34.9100251 27.3288835,35.0943619 27.8665577,34.9534094 C28.4042319,34.812457 28.8237524,34.3693677 28.9564656,33.8022702 C29.0891789,33.2351727 28.9132858,32.6372169 28.499498,32.24879 L22.9999405,26.4447938 C22.2262992,25.6290127 22.2262992,24.3065551 22.9999405,23.490774 L28.499498,17.6867778 C28.9248198,17.2369424 29.052215,16.561792 28.8225717,15.9745988 C28.5929284,15.3874057 28.051195,15.0031024 27.4487381,15 Z" id="Path" fill="#FFC575" fill-rule="nonzero"></path>
            </g>
        </g>
    </g>
</svg>