<?xml version="1.0" encoding="UTF-8"?>
<svg width="14px" height="25px" viewBox="0 0 14 25" version="1.1" xmlns="http://www.w3.org/2000/svg" xmlns:xlink="http://www.w3.org/1999/xlink">
    <!-- Generator: Sketch 55.2 (78181) - https://sketchapp.com -->
    <title>Path</title>
    <desc>Created with Sketch.</desc>
    <g id="V1.0" stroke="none" stroke-width="1" fill="none" fill-rule="evenodd">
        <g id="Word-Formation" transform="translate(-30.000000, -60.000000)" fill="#000000" fill-rule="nonzero">
            <path d="M42.0256666,60 C41.5210773,59.9984434 41.0368564,60.2059706 40.6809472,60.5763283 L30.5561463,71.0673828 C29.8146179,71.8368433 29.8146179,73.0826165 30.5561463,73.8520769 L40.6809472,84.3431315 C41.1508379,84.8875314 41.8731245,85.1179524 42.5574371,84.9417618 C43.2417497,84.7655712 43.7756849,84.2117097 43.9445926,83.5028378 C44.1135004,82.7939658 43.8896365,82.0465211 43.3629974,81.5609875 L36.3635607,74.3059923 C35.3789262,73.2862659 35.3789262,71.6331938 36.3635607,70.6134675 L43.3629974,63.3584723 C43.9043161,62.796178 44.0664555,61.9522399 43.7741822,61.2182485 C43.4819088,60.4842571 42.79243,60.003878 42.0256666,60 Z" id="Path"></path>
        </g>
    </g>
</svg>