<?xml version="1.0" encoding="UTF-8"?>
<svg width="70px" height="70px" viewBox="0 0 70 70" version="1.1" xmlns="http://www.w3.org/2000/svg" xmlns:xlink="http://www.w3.org/1999/xlink">
    <!-- Generator: Sketch 55.2 (78181) - https://sketchapp.com -->
    <title>Group 6</title>
    <desc>Created with Sketch.</desc>
    <g id="V1.0" stroke="none" stroke-width="1" fill="none" fill-rule="evenodd">
        <g id="Word-Formation-Modal" transform="translate(-153.000000, -673.000000)">
            <g id="Group-6" transform="translate(153.000000, 673.000000)">
                <circle id="Oval" fill="#FFC575" cx="35" cy="35" r="35"></circle>
                <g id="Group" transform="translate(29.000000, 19.000000)" fill="#000000" fill-rule="nonzero">
                    <g id="Path">
                        <path d="M1.41176471,0 C0.633176471,0 0,0.652363636 0,1.45454545 L0,30.5454545 C0,31.3476364 0.633176471,32 1.41176471,32 C2.19035294,32 2.82352941,31.3476364 2.82352941,30.5454545 L2.82352941,1.45454545 C2.82352941,0.652363636 2.19035294,0 1.41176471,0"></path>
                        <path d="M10.5882353,0 C9.80964706,0 9.17647059,0.652363636 9.17647059,1.45454545 L9.17647059,30.5454545 C9.17647059,31.3476364 9.80964706,32 10.5882353,32 C11.3668235,32 12,31.3476364 12,30.5454545 L12,1.45454545 C12,0.652363636 11.3668235,0 10.5882353,0"></path>
                    </g>
                </g>
            </g>
        </g>
    </g>
</svg>