<?xml version="1.0" encoding="UTF-8"?>
<svg width="33px" height="26px" viewBox="0 0 33 26" version="1.1" xmlns="http://www.w3.org/2000/svg" xmlns:xlink="http://www.w3.org/1999/xlink">
    <!-- Generator: Sketch 55.2 (78181) - https://sketchapp.com -->
    <title>Group 10</title>
    <desc>Created with Sketch.</desc>
    <g id="V1.0" stroke="none" stroke-width="1" fill="none" fill-rule="evenodd">
        <g id="Gurmuki-Numbers-1" transform="translate(-272.000000, -359.000000)" fill="#FFC575" fill-rule="nonzero" stroke="#FFC575">
            <g id="Group-7" transform="translate(53.000000, 338.000000)">
                <g id="Group-10" transform="translate(219.000000, 22.000000)">
                    <path d="M29.9468112,16.8997086 L29.9450431,8.01291306 C29.9562371,5.96691571 29.038694,3.80907898 27.5506991,2.3702351 C26.0721302,0.899313673 23.8887578,0.00173408163 21.8250129,0.00173408163 C21.8126362,0.00173408163 21.8008509,0.00173408163 21.7884741,0.00173408163 L15.0890609,0.000216598942 C14.5610608,9.70017424e-05 14.1329351,0.428028727 14.1328155,0.956028858 C14.1328155,0.956101042 14.1328155,0.956173225 14.1328155,0.956245408 C14.1328155,1.4843886 14.5609177,1.91255568 15.0890609,1.91263571 L21.7495819,1.9136449 C23.3902069,1.9136449 24.9960612,2.56876673 26.161706,3.71198224 C27.329119,4.85693184 27.9973897,6.43535449 27.9956216,8.04238653 L27.9973897,16.8997086 L26.8099191,16.8997086 C26.2576343,16.8997086 25.8099191,17.3474238 25.8099191,17.8997086 C25.8099191,18.0820072 25.8597515,18.2608378 25.9540285,18.4168655 L28.1156858,21.9943911 C28.4013037,22.4670864 29.016038,22.6187426 29.4887333,22.3331247 C29.6274017,22.2493368 29.7436354,22.1331108 29.8274326,21.994448 L31.9894148,18.4169224 C32.2750642,17.9442461 32.1234488,17.3295017 31.6507725,17.0438524 C31.4947318,16.9495533 31.3158799,16.8997086 31.1335586,16.8997086 L29.9468112,16.8997086 Z" id="Path"></path>
                    <path d="M11.150825,22.5153214 C9.51432759,22.5153214 7.90846724,21.8599096 6.74400517,20.7158241 C5.57776897,19.5731886 4.90949828,17.99505 4.91126638,16.387728 L4.90949828,8.12166265 L6.09616485,8.12166265 C6.6484496,8.12166265 7.09616485,7.6739474 7.09616485,7.12166265 C7.09616485,6.93932817 7.04631286,6.76046379 6.95200085,6.60441537 L4.79009945,3.02733899 C4.50443167,2.55467382 3.88968135,2.40308249 3.41701618,2.68875028 C3.27837926,2.77253919 3.16217274,2.88875345 3.07839305,3.02739594 L0.916816579,6.60447232 C0.631180244,7.07715649 0.782812477,7.69189673 1.25549665,7.97753306 C1.411532,8.07182301 1.5903751,8.12166265 1.77268699,8.12166265 L2.96007672,8.12166265 L2.96184483,16.4160473 C2.95065086,18.4626247 3.86819397,20.6201714 5.35560345,22.0584353 C6.83475776,23.5299367 9.01813621,24.4278063 11.081881,24.4278063 C11.0936664,24.4278063 11.1060431,24.4278063 11.1184198,24.4278063 L17.8178331,24.4293238 C18.3458332,24.4294434 18.7739588,24.0015117 18.7740784,23.4735115 C18.7740784,23.4734394 18.7740784,23.4733672 18.7740784,23.473295 C18.7740784,22.9451401 18.3459879,22.5169524 17.8178331,22.5168326 L11.1596655,22.5153214 C11.1567207,22.5153214 11.1537759,22.5153214 11.150825,22.5153214 Z" id="Path"></path>
                </g>
            </g>
        </g>
    </g>
</svg>