<?xml version="1.0" encoding="UTF-8"?>
<svg width="20px" height="20px" viewBox="0 0 20 20" version="1.1" xmlns="http://www.w3.org/2000/svg" xmlns:xlink="http://www.w3.org/1999/xlink">
    <!-- Generator: Sketch 55.2 (78181) - https://sketchapp.com -->
    <title>Shape 2</title>
    <desc>Created with Sketch.</desc>
    <g id="V1.0" stroke="none" stroke-width="1" fill="none" fill-rule="evenodd">
        <g id="Main-Menu" transform="translate(-143.000000, -743.000000)" fill="#000000" fill-rule="nonzero" stroke="#000000" stroke-width="0.8">
            <g id="Group-2" transform="translate(144.000000, 742.000000)">
                <g id="Shape-2" transform="translate(0.000000, 2.000000)">
                    <path d="M11.4587089,17.9126215 C11.3427801,17.9120147 11.2276107,17.8938668 11.1171129,17.8587943 C10.794993,17.7626798 10.5217353,17.5471839 10.35318,17.2563431 L9.54991178,15.8920293 C9.13325549,15.929705 8.71404932,15.929705 8.29739303,15.8920293 L7.52931956,17.2584134 C7.45316212,17.454687 7.30510791,17.6145855 7.11526377,17.7055936 C6.77011535,17.8796077 6.37329482,17.921572 5.99938344,17.8235995 L5.97868065,17.8235995 L4.78205943,17.3018892 C4.54907495,17.2130524 4.35976253,17.0371032 4.25413831,16.8112331 C4.09550362,16.5155804 4.0555249,16.1705789 4.14234325,15.8464832 L4.52327457,14.3579526 C4.18818294,14.0848187 3.87908382,13.781264 3.59993017,13.4511704 L2.06585349,13.8817885 C1.78267257,13.9914139 1.4641531,13.9591004 1.20875802,13.7948367 C0.948951719,13.6558124 0.73366848,13.44627 0.587674345,13.1903153 L0.587674345,13.1716828 L0.0804560103,11.948148 C-0.163836902,11.4409296 0.181899677,10.7121914 0.664274665,10.4678985 L1.99339373,9.68119254 C1.94429655,9.20421823 1.94429655,8.72346356 1.99339373,8.24648925 L0.664274665,7.50739967 C0.126002147,7.31486374 -0.0499715615,6.44741687 0.1011588,5.96504188 L0.1011588,5.94433909 L0.618728529,4.7456476 C0.707982517,4.5117441 0.8846674,4.3216965 1.11145491,4.2156562 C1.40532551,4.0583146 1.74816921,4.01906899 2.06999405,4.10593141 L3.54196236,4.48686273 C3.82134888,4.14866501 4.13187337,3.83744738 4.46944732,3.5573075 L4.05539153,2.0646364 C3.80902834,1.54499639 4.29761417,0.807977097 4.74479441,0.574035579 L4.76342692,0.574035579 L5.97454009,0.0958011493 C6.20066334,-0.0121017155 6.46009791,-0.0269690259 6.69706743,0.054395571 C7.01851623,0.150785945 7.29102938,0.366278685 7.45893007,0.656846736 L8.24563606,1.99010636 C8.69792535,1.94540549 9.15352002,1.94540549 9.60580931,1.99010636 L10.3759531,0.615441158 C10.452552,0.419944641 10.6005525,0.260844043 10.7900089,0.17033119 C11.1390668,-0.00571156258 11.540747,-0.0469851224 11.9183109,0.054395571 L11.9390137,0.054395571 L13.1356349,0.576105858 C13.3686193,0.664942724 13.5579318,0.84089191 13.663556,1.06676196 C13.8223937,1.36235097 13.8623816,1.70743177 13.7753511,2.03151194 L13.3799278,3.57594001 C13.7084,3.85086718 14.0112152,4.1550683 14.2846397,4.48479245 L15.8290677,4.05210416 C16.1122487,3.94247869 16.4307681,3.97479226 16.6861632,4.13905588 C16.9459695,4.27808027 17.1612527,4.48762262 17.3072469,4.74357732 L17.3072469,4.76220983 L17.7875516,5.97746355 C18.0401256,6.48468189 17.6861079,7.2196309 17.2120141,7.45771298 L15.831138,8.27340287 C15.8731334,8.71406409 15.8731334,9.15772017 15.831138,9.59838138 L17.278263,10.4057902 C17.4737595,10.4823891 17.6328601,10.6303896 17.7233729,10.8198459 C17.9033979,11.1667451 17.9476852,11.5682829 17.8475897,11.9460777 L17.8475897,11.9667805 L17.3279497,13.1592611 C17.1499057,13.6913228 16.3859728,13.9542482 15.8787544,13.796907 L14.3012019,13.3828512 C14.0151172,13.7301753 13.6961977,14.0490948 13.3488736,14.3351795 L13.7629294,15.8444129 C14.0072223,16.3619826 13.5186365,17.0990019 13.0735265,17.3329434 L13.0528237,17.3329434 L11.8417105,17.8111778 C11.7241325,17.8754852 11.5927038,17.9102961 11.4587089,17.9126215 Z M9.84182111,15.5814875 L10.7154788,17.0638072 C10.8328113,17.2627327 11.0204318,17.4104654 11.2413297,17.4778629 C11.3740069,17.5321659 11.5227082,17.5321659 11.6553854,17.4778629 L11.6760882,17.4778629 L12.8789203,16.9706446 C13.1936027,16.7988115 13.500004,16.2750309 13.3737169,16.0224569 C13.3668558,16.0099507 13.3613056,15.9967689 13.3571547,15.9831216 L12.8934122,14.3268984 C12.8694336,14.2547608 12.8869185,14.1752841 12.9389584,14.1198705 L12.965872,14.0950272 C13.36339,13.780765 13.7232467,13.421603 14.0382765,13.024693 L14.0610495,12.9998496 C14.1052983,12.9576812 14.1659197,12.9372215 14.2266719,12.9439521 L14.2597963,12.9439521 L15.9843387,13.3973432 C16.3052319,13.4967166 16.833153,13.3228132 16.9304561,13.0205524 L16.9304561,12.9998496 L17.4480259,11.8094393 C17.5092408,11.5459084 17.4770428,11.2692982 17.3569336,11.0268738 C17.3135367,10.9261428 17.2336702,10.8455368 17.1333435,10.8012134 L17.0940082,10.7846512 L15.5330179,9.9109935 L15.5019637,9.89029071 C15.4541991,9.85260754 15.4254278,9.79582206 15.4232931,9.73501979 C15.4221728,9.72262337 15.4221728,9.71015119 15.4232931,9.69775477 C15.4801284,9.20112846 15.4801284,8.6996397 15.4232931,8.20301339 C15.4222941,8.19130308 15.4222941,8.17952896 15.4232931,8.16781865 C15.4249194,8.10735713 15.4529046,8.05063039 15.4998934,8.01254773 L15.5288773,7.99391522 L17.0194781,7.10990612 C17.3175983,6.9546352 17.5701723,6.45569798 17.4211122,6.17206977 L17.4211122,6.15343726 L16.9408075,4.93818354 C16.8295571,4.76199181 16.6729539,4.61897519 16.4874164,4.52412775 C16.3439848,4.4252623 16.1630801,4.39778311 15.9967603,4.44959771 L15.957425,4.46615994 L14.2680774,4.93818354 L14.2328827,4.93818354 C14.2035598,4.94463893 14.1731836,4.94463893 14.1438607,4.93818354 C14.1155044,4.9293537 14.0893798,4.91452624 14.0672604,4.89470768 L14.042417,4.86779405 C13.739644,4.48636248 13.3959984,4.13924568 13.017629,3.8326546 L12.9927856,3.80988153 C12.9519483,3.76576501 12.9323039,3.70607622 12.9389584,3.64632949 C12.9380736,3.63530573 12.9380736,3.62422879 12.9389584,3.61320503 L13.3757872,1.9176466 C13.4287888,1.69813155 13.3993192,1.46679537 13.2929761,1.26757902 C13.2356008,1.1362384 13.1294536,1.03231808 12.9969262,0.977739968 L12.9762234,0.977739968 L11.7837427,0.449818844 C11.5166213,0.388155319 11.2363799,0.421081857 10.9908259,0.542981396 C10.8899548,0.587220917 10.809405,0.667770644 10.7651655,0.768641798 C10.7610146,0.782289135 10.7554644,0.79547093 10.7486033,0.807977097 L9.9018592,2.31928071 C9.87391298,2.36894413 9.8267313,2.40489208 9.77143162,2.41865409 C9.74612047,2.42341891 9.72014245,2.42341891 9.6948313,2.41865409 C9.18663383,2.35837507 8.67309266,2.35837507 8.16489518,2.41865409 L8.13177072,2.41865409 C8.0713092,2.4170278 8.01458247,2.38904261 7.9764998,2.34205377 L7.95786729,2.31306987 L7.10077182,0.863874628 C6.98409233,0.665219131 6.79721541,0.517490344 6.57699125,0.449818844 C6.444314,0.395515839 6.29561273,0.395515839 6.16293547,0.449818844 L6.14223268,0.449818844 L4.93111951,0.928053274 C4.61643712,1.09781615 4.31003584,1.62159671 4.43632285,1.87624102 C4.44318399,1.88874719 4.44873422,1.90192898 4.45288508,1.91557632 L4.90834645,3.57386973 C4.90934544,3.58558004 4.90934544,3.59735416 4.90834645,3.60906447 C4.91562576,3.6695006 4.89593823,3.73007762 4.85451919,3.77468679 L4.82760557,3.79953013 C4.4400256,4.10886409 4.08861258,4.4609716 3.78004444,4.84916154 L3.75727137,4.87400489 C3.73534711,4.8945677 3.70920814,4.91010979 3.68067105,4.91955103 C3.65134813,4.92600642 3.62097197,4.92600642 3.59164905,4.91955103 L3.55645431,4.91955103 L1.94784759,4.50549524 C1.72732005,4.45020318 1.4941064,4.47898587 1.29363946,4.58623612 C1.16138065,4.64402762 1.05672474,4.75091026 1.00173013,4.88435629 L1.00173013,4.9029888 L0.484160399,6.09961001 C0.382716732,6.44327631 0.529706535,7.03537608 0.802983353,7.12025752 L0.842318652,7.13681975 L2.29151389,7.95457992 L2.32256808,7.97528271 C2.37033263,8.01296588 2.39910393,8.06975136 2.40123868,8.13055363 C2.4023589,8.14295005 2.4023589,8.15542223 2.40123868,8.16781865 C2.33637245,8.69859595 2.33637245,9.23529668 2.40123868,9.76607397 C2.40223767,9.77778429 2.40223767,9.7895584 2.40123868,9.80126872 C2.39961238,9.86173023 2.37162719,9.91845697 2.32463836,9.95653963 L2.29358417,9.97724242 L0.844388931,10.8343379 C0.556620161,10.9854683 0.304046133,11.4823352 0.457246773,11.7680337 L0.457246773,11.7866662 L0.937551482,13.0019199 C1.04880191,13.1781117 1.20540511,13.3211283 1.39094257,13.4159757 C1.53449045,13.5145473 1.71525516,13.5420053 1.88159867,13.4905057 L1.92093397,13.4739435 L3.59785989,13.0039902 L3.63305463,13.0039902 C3.69317744,12.9961579 3.75371184,13.0150749 3.79867695,13.0557472 L3.82352029,13.0826608 C4.12906354,13.4650701 4.47625046,13.812257 4.85865975,14.1178003 L4.88557338,14.1405733 C4.92716049,14.1843333 4.94757536,14.2440657 4.94147091,14.3041254 C4.9424699,14.3158357 4.9424699,14.3276098 4.94147091,14.3393201 L4.52741513,15.9644891 C4.47451674,16.1849083 4.50473757,16.4170926 4.61229656,16.6166269 C4.66967186,16.7479675 4.77581904,16.8518878 4.90834645,16.906466 L4.92904924,16.906466 L6.12360017,17.4281762 C6.39004729,17.4896919 6.66958824,17.4567616 6.91444672,17.3350137 C7.01598059,17.2910296 7.09726793,17.2104813 7.1421774,17.1093533 C7.14632826,17.095706 7.15187849,17.0825242 7.15873963,17.070018 L7.99927287,15.5814875 L8.01790538,15.5525035 C8.03712992,15.5271942 8.06192358,15.5066509 8.09036514,15.4924655 C8.11623106,15.479887 8.14443416,15.4728362 8.1731763,15.4717627 L8.21044132,15.4717627 C8.68380665,15.5236682 9.16142788,15.5236682 9.63479322,15.4717627 L9.66791768,15.4717627 C9.72837919,15.473389 9.78510593,15.5013742 9.8231886,15.548363 L9.84182111,15.5814875 Z M8.91019559,13.455312 C7.21816261,13.4515219 5.67011709,12.5024741 4.89914575,10.9962892 C4.1281744,9.49010419 4.26356272,7.67935669 5.24994247,6.30456762 C5.94496805,5.32993708 7.00158847,4.67448941 8.18352769,4.48479245 L8.21665216,4.69182035 L8.18352769,4.48479245 C9.86253427,4.20822591 11.5544376,4.89908023 12.5599803,6.27182788 C13.5655229,7.64457552 13.7139151,9.46605744 12.9438267,10.9834618 C12.1737384,12.5008662 10.615968,13.4564644 8.91433615,13.455312 L8.91019559,13.455312 Z M8.91019559,4.83880103 C7.18923498,4.83519718 5.6488742,5.90587463 5.05252146,7.52021099 C4.45616872,9.13454736 4.93055059,10.9494918 6.24056174,12.0655515 C7.5505729,13.1816112 9.41783243,13.3616205 10.91692,12.5163661 C12.4160075,11.6711117 13.228363,9.98021246 12.95138,8.28168399 C12.6306136,6.29963226 10.9201049,4.8424998 8.91226587,4.84088043 L8.91019559,4.83880103 Z" id="Shape"></path>
                </g>
            </g>
        </g>
    </g>
</svg>