<?xml version="1.0" encoding="UTF-8"?>
<svg width="31px" height="29px" viewBox="0 0 31 29" version="1.1" xmlns="http://www.w3.org/2000/svg" xmlns:xlink="http://www.w3.org/1999/xlink">
    <!-- Generator: Sketch 55.2 (78181) - https://sketchapp.com -->
    <title>Path</title>
    <desc>Created with Sketch.</desc>
    <g id="V1.0" stroke="none" stroke-width="1" fill="none" fill-rule="evenodd" opacity="0.895507812">
        <g id="Gurmuki-Numbers-1" transform="translate(-72.000000, -359.000000)" fill="#FFC575" fill-rule="nonzero" stroke="#FFC575" stroke-width="2">
            <g id="Group-7" transform="translate(53.000000, 338.000000)">
                <path d="M42.2810553,38.6221571 L48.5364135,33.5901024 C49.4213179,32.875491 48.9636087,31.4760439 47.8040789,31.4164929 L39.7483981,30.9400854 C39.260175,30.9103099 38.8329798,30.6125552 38.6498962,30.1659231 L35.6900438,22.7816061 C35.2628486,21.7394646 33.7676654,21.7394646 33.3404702,22.7816061 L30.3806178,30.1361476 C30.1975341,30.5827797 29.7703389,30.8805344 29.2821158,30.9103099 L21.1959211,31.3867175 C20.0363913,31.4462684 19.5786821,32.8457156 20.4635865,33.5603269 L26.7189447,38.5626061 C27.085112,38.8603609 27.2681956,39.3665439 27.1461399,39.813176 L25.1017057,47.4654722 C24.8270802,48.5373892 26.017124,49.4008778 26.9935702,48.8053684 L33.7981793,44.547476 C34.2253745,44.2794967 34.7441115,44.2794967 35.1407928,44.547476 L41.9759159,48.8053684 C42.9523621,49.4008778 44.1424058,48.5373892 43.8677803,47.4654722 L41.8233462,39.8429514 C41.7318044,39.3963194 41.8843741,38.9199118 42.2810553,38.6221571 Z" id="Path"></path>
            </g>
        </g>
    </g>
</svg>