<?xml version="1.0" encoding="UTF-8"?>
<svg width="132px" height="144px" viewBox="0 0 132 144" version="1.1" xmlns="http://www.w3.org/2000/svg" xmlns:xlink="http://www.w3.org/1999/xlink">
    <!-- Generator: Sketch 55.2 (78181) - https://sketchapp.com -->
    <title>Group</title>
    <desc>Created with Sketch.</desc>
    <g id="V1.0" stroke="none" stroke-width="1" fill="none" fill-rule="evenodd">
        <g id="Opening-Screen" transform="translate(-122.000000, -290.000000)">
            <g id="Group" transform="translate(122.000000, 290.000000)">
                <rect id="Rectangle" fill="#FFFFFF" x="86" y="87" width="5" height="1.85"></rect>
                <path d="M47.5035507,61.9815554 C24.5015101,61.9815554 5.85780753,80.3420726 5.85780753,102.990778 C5.85780753,112.460157 9.11892907,121.179767 14.5924414,128.120443 L0,144 L47.5035507,144 C70.5037956,144 89.1492939,125.639483 89.1492939,102.990778 C89.1492939,80.3420726 70.5037956,61.9815554 47.5035507,61.9815554 Z M121.810791,44.4273943 C121.810791,53.3167635 119.117133,61.9727138 114.054853,69.3289453 L132,88.8547886 L88.4525345,88.8547886 C87.6031344,86.4710867 86.5454249,84.1864109 85.3027508,82.0184446 L116.394743,82.0184446 L105.088564,69.7144401 C111.370174,61.7499048 114.868337,54.7031302 114.868337,44.4273943 C114.868337,23.6690285 97.7743858,6.83634399 76.6938209,6.83634399 C55.6132561,6.83634399 38.5193045,23.6690285 38.5193045,44.4273943 C38.5193045,50.2133533 39.8499714,55.6916238 42.2203902,60.5863471 C39.8320137,60.8728157 37.4993062,61.3502634 35.2474084,62.0027753 C32.8859685,56.6111527 31.5768509,50.6695811 31.5768509,44.4273943 C31.5768509,19.8918866 51.7774876,0 76.6938209,0 C101.61195,0 121.810791,19.8901183 121.810791,44.4273943 Z" id="Shape" fill="#000000"></path>
                <ellipse id="Oval" fill="#000000" cx="75" cy="47.5" rx="42" ry="43"></ellipse>
                <ellipse id="Oval" fill="#000000" cx="108.5" cy="79.5" rx="10.5" ry="7.5"></ellipse>
                <path d="M53.2114402,39.2 C53.0234927,39.2 52.9608444,39.1078199 53.0234936,38.9234568 C53.0861428,38.7390937 53.1905565,38.5415648 53.336738,38.3308642 C53.4829194,38.1201636 53.6343193,37.9226347 53.7909423,37.7382716 C53.9475652,37.5539085 54.0467583,37.4617284 54.0885244,37.4617284 C54.3600042,37.172015 54.7150109,36.8559688 55.1535552,36.5135802 C55.5920995,36.1711917 55.9888717,36 56.3438838,36 L100.887232,36 C101.01253,36 101.033413,36.0790116 100.949881,36.237037 C100.866348,36.3950625 100.746272,36.5728385 100.58965,36.7703704 C100.433027,36.9679022 100.281627,37.1654311 100.135445,37.362963 C99.9892638,37.5604948 99.9161742,37.698765 99.9161742,37.7777778 C99.7073435,38.0674912 99.3836609,38.3769531 98.9451166,38.7061728 C98.5065723,39.0353926 98.0471519,39.2 97.5668415,39.2 L53.2114402,39.2 Z M87.7113592,38.3445545 C87.7113592,38.0488434 87.8995322,37.7636977 88.2758838,37.4891089 C88.6522353,37.2145201 89.0769686,36.9610573 89.5500963,36.7287129 C90.0877414,36.4752463 90.7006477,36.2323444 91.3888334,36 C91.4533508,37.161722 91.238296,38.228378 90.7436625,39.2 C90.249029,40.171622 89.5931118,41.0534614 88.7758912,41.8455446 C87.9586706,42.6376277 87.0339349,43.3399309 86.0016563,43.9524752 C84.9693777,44.5650196 83.95862,45.103628 82.969353,45.5683168 C80.7327493,46.4765722 78.4746737,47.152473 76.1950584,47.5960396 C73.9154431,48.0396062 71.5928511,48.4409223 69.2272126,48.8 C69.0336603,48.8 68.9637675,48.7260733 69.017532,48.5782178 C69.0712965,48.4303623 69.1734476,48.271948 69.3239882,48.1029703 C69.4960347,47.8917481 69.7110895,47.6488463 69.9691591,47.3742574 C70.2917462,47.141913 70.6788449,46.8937307 71.1304668,46.629703 C71.5820887,46.3656752 72.022951,46.2336634 72.4530671,46.2336634 C73.2702877,46.1280523 74.2219053,46.0118818 75.3079484,45.8851485 C76.3939916,45.7584152 77.517653,45.58944 78.6789664,45.3782178 C79.8402799,45.1669956 80.9800704,44.8924109 82.0983723,44.5544554 C83.2166741,44.2165 84.2059263,43.77294 85.0661585,43.2237624 C85.9263907,42.6745847 86.6038133,42.0039644 87.0984468,41.2118812 C87.5930803,40.419798 87.7973824,39.464032 87.7113592,38.3445545 Z M73.6049295,47.7279363 C73.416301,47.7279363 73.3481862,47.6602825 73.400583,47.5249728 C73.4529798,47.3896632 73.5525322,47.2387431 73.6992432,47.0722081 C73.866913,46.8640394 74.076497,46.6350572 74.3280016,46.3852547 C74.7262172,46.1354523 75.1296664,45.8752452 75.5383614,45.6046259 C75.9470564,45.3340065 76.3400264,45.1986989 76.7172833,45.1986989 C77.9328889,45.2611495 79.1275178,45.4484986 80.3012059,45.7607517 C81.474894,46.0730048 82.5542518,46.525765 83.5393114,47.1190458 C84.5243711,47.7123267 85.3889052,48.4461105 86.1329396,49.3204192 C86.8769741,50.1947278 87.4271321,51.2147393 87.7834303,52.3804842 C88.1606872,53.4629616 88.3283544,54.5350145 88.286437,55.596675 C88.2445196,56.6583355 88.0349355,57.6835512 87.6576786,58.6723526 C87.2804217,59.6611541 86.7459825,60.5926996 86.0543448,61.4670039 C85.3627072,62.3413126 84.5662879,63.1219336 83.6650631,63.8088904 C82.5961686,64.6415653 81.3858208,65.3649408 80.0339836,65.9790386 C78.6821464,66.5931363 77.2674543,67.0719172 75.7898647,67.4153956 C74.3122752,67.758874 72.8085099,67.9514272 71.2785236,67.993061 C69.7485373,68.0346947 68.2657303,67.8889788 66.8300582,67.5559088 C65.3943861,67.2228388 64.0425692,66.6972207 62.7745669,65.9790386 C61.5065645,65.2608564 60.3905296,64.3084988 59.4264286,63.121937 C58.2946579,61.6855728 57.4825199,60.09831 56.98999,58.3601011 C56.4974602,56.6218922 56.2354802,54.8420762 56.2040421,53.0205999 C56.172604,51.1991235 56.3245524,49.3724702 56.6598919,47.5405854 C56.9952314,45.7087006 57.4353578,43.9601095 57.9802844,42.2947596 C58.5671285,40.4628748 59.295433,38.651834 60.1652197,36.8615829 C61.0350064,35.0713318 62.0462493,33.3643738 63.1989787,31.7406577 C64.3517082,30.1169416 65.6511291,28.607741 67.0972805,27.2130105 C68.543432,25.81828 70.1362705,24.5796946 71.875844,23.4972172 C72.6093991,23.039246 73.3534224,22.5968941 74.1079362,22.1701482 C74.8624499,21.7434023 75.6431504,21.3687042 76.450061,21.0460426 C77.2569716,20.7233811 78.0848285,20.4683782 78.9336565,20.2810264 C79.7824845,20.0936745 80.6574978,20 81.5587226,20 C82.4599474,20 83.3716379,20.1040828 84.2938215,20.3122515 C85.216005,20.5204192 86.0910183,20.8326687 86.9188876,21.2490061 C87.7467569,21.6653436 88.4855405,22.1857576 89.1352608,22.8102638 C89.784981,23.43477 90.2879826,24.1737579 90.6442808,25.0272497 C91.1682487,26.2138115 91.4197495,27.3899472 91.3987908,28.5556921 C91.3778321,29.721437 91.1472897,30.835123 90.7071566,31.8967835 C90.2670236,32.958444 89.6539903,33.9576389 88.8680385,34.8943982 C88.0820866,35.8311575 87.1861149,36.6742282 86.1800965,37.4236357 C85.1740781,38.1730431 84.1051996,38.8079482 82.9734289,39.32837 C81.8416582,39.8487919 80.7099045,40.22349 79.5781338,40.4524756 C79.3475879,40.5149262 79.2218375,40.4993138 79.2008788,40.4056378 C79.1799201,40.3119619 79.2061181,40.1974708 79.2794736,40.0621611 C79.3528291,39.9268515 79.4471419,39.796748 79.5624149,39.6718467 C79.6776878,39.5469455 79.766761,39.4844958 79.8296372,39.4844958 C80.060183,39.1514258 80.4059967,38.8287691 80.8670884,38.516516 C81.3281802,38.2042629 81.7997442,37.9960973 82.2817947,37.892013 C83.6021939,37.6630274 84.6867912,37.1946547 85.5356192,36.4868811 C86.3844472,35.7791074 86.9765221,34.7903207 87.3118615,33.5204915 C87.6681597,32.5004647 87.8777437,31.449223 87.9406199,30.366751 C88.003496,29.2842736 87.793912,28.2850786 87.3118615,27.3691362 C86.8298111,26.5156444 86.227257,25.7610441 85.5041813,25.1053126 C84.7811056,24.4495811 83.9846863,23.9135547 83.1148995,23.4972172 C82.2451128,23.0808797 81.3229431,22.7894479 80.3483628,22.6229129 C79.3737825,22.4563779 78.4044564,22.4251531 77.4403554,22.5292374 C76.4762545,22.6541387 75.5855224,22.8675084 74.7681324,23.1693531 C73.9507425,23.4711977 73.1805212,23.8511 72.4574455,24.3090712 C71.7343698,24.7670424 71.0479821,25.2926606 70.3982619,25.8859414 C69.7485417,26.4792223 69.1197896,27.1193316 68.5119868,27.8062884 C67.2125464,29.3675461 66.0231571,31.0536953 64.9437832,32.8647633 C63.8644093,34.6758312 62.937,36.5545258 62.1615275,38.5009035 C61.386055,40.4472811 60.7835009,42.4404668 60.3538472,44.4805204 C59.9241935,46.5205739 59.7093699,48.5397803 59.7093699,50.5382001 C59.7093699,51.3916919 59.7565263,52.2555792 59.8508405,53.1298879 C59.9451548,54.0041966 60.1075824,54.8680881 60.3381282,55.7215756 C60.5686741,56.5750674 60.8778106,57.4077299 61.2655468,58.2195879 C61.6532831,59.0314419 62.1510451,59.812067 62.7588479,60.5614744 C64.2259581,62.2892749 65.996943,63.553881 68.071856,64.3553306 C70.1467689,65.1567802 72.3159635,65.5054576 74.5795049,65.4013732 C75.2292251,65.4013732 75.9575296,65.3805567 76.7644402,65.3389229 C77.5713508,65.2972892 78.3572909,65.1880022 79.122284,65.0110588 C79.8872772,64.8341154 80.5946232,64.5791125 81.2443434,64.2460425 C81.8940637,63.9129726 82.4075445,63.4654165 82.7848014,62.9033609 C83.6021914,61.8625173 84.1785474,60.7280147 84.5138869,59.4998192 C84.8492263,58.2716237 84.9016223,57.02263 84.6710765,55.7528008 C84.2938196,54.5037884 83.7436615,53.3848983 83.0205858,52.3960968 C82.2975101,51.4072953 81.4486948,50.5642246 80.4741145,49.8668593 C79.4995341,49.1694941 78.425416,48.6386718 77.2517279,48.2743765 C76.0780398,47.9100812 74.8624525,47.7279363 73.6049295,47.7279363 Z" id="a" stroke="#33B1CF" stroke-width="0.75" fill="#33B1CF" fill-rule="nonzero"></path>
                <ellipse id="Oval" fill="#3399B9" cx="47.5" cy="104" rx="33.5" ry="32"></ellipse>
                <path d="M32,119.347705 C32.8022774,119.347705 33.444097,119.155774 33.9254658,118.771905 C34.4068323,118.388037 34.7999467,117.887347 35.1048137,117.269819 C35.4096806,116.652292 35.7707018,115.726015 36.1878882,114.49096 L36.6692547,113.089013 L46.5854037,85 L47.7406832,85 L58.4751553,113.489569 C58.8281591,114.390825 59.1330215,115.367171 59.3897516,116.418637 C59.6464816,117.470103 59.7587993,118.329621 59.7267081,118.997218 L63,118.79694 L63,121 L51.9767081,121 L51.9767081,119.347705 C53.8700923,119.314325 54.8167702,118.513221 54.8167702,116.944367 C54.8167702,116.31015 54.6563163,115.525735 54.3354037,114.591099 L52.6506211,109.884562 L40.1350932,110.184979 C39.6537243,111.553553 39.0921357,113.339349 38.4503106,115.54242 C38.129398,116.643955 37.7282633,117.795543 37.2468944,118.997218 L41.0015528,118.79694 L41.0015528,121 L32,121 L32,119.347705 Z M51.9767081,108.031989 L48.5590062,98.4687065 L46.3928571,92.310153 L46.2965839,92.310153 L44.2748447,97.9680111 L41.6754658,105.578581 L40.8571429,108.031989 L51.9767081,108.031989 Z" id="A" fill="#000000" fill-rule="nonzero" opacity="0.8"></path>
            </g>
        </g>
    </g>
</svg>